<svg xmlns="http://www.w3.org/2000/svg" enable-background="new 0 0 1080 1080" viewBox="0 0 1080 1080" id="teenager-skateboarding-on-the-park"><path fill="#f0faff" d="M320.034 130.509c-27.668 12.099-55.173 26.851-74.525 50.033s-29.05 56.49-17.44 84.367c15.508 37.239 64.645 58.898 64.869 99.237.161 28.889-26.499 50.95-53.412 61.454s-56.71 14.289-81.185 29.638c-36.939 23.166-54.26 68.001-61.348 111.023-7.359 44.67-4.377 95.522 27.23 127.935 39.284 40.285 104.248 35.738 159.857 27.15 74.209-11.461 148.092-24.928 221.964-38.394l485.804-88.555c17.365-3.165 35.427-6.627 49.536-17.233 28.016-21.062 30.389-64.541 14.105-95.578s-46.408-52.126-76.332-70.375c-29.924-18.25-61.519-35.51-83.93-62.459-22.412-26.948-33.557-66.839-16.599-97.513 14.368-25.988 45.236-39.878 58.697-66.348 17.735-34.875-2.672-79.416-34.844-101.681-32.172-22.267-436.269-16.623-582.447 47.299z"></path><circle cx="130.491" cy="649.518" r="130.491" fill="#b0e1ff"></circle><path fill="#cef" d="M130.49 907.386a2.982 2.982 0 0 1-2.984-2.981V649.518a2.983 2.983 0 1 1 5.968 0v254.887a2.983 2.983 0 0 1-2.984 2.981z"></path><path fill="#cef" d="M130.49 720.08a2.972 2.972 0 0 1-2.11-.874l-36.543-36.542a2.985 2.985 0 0 1 4.22-4.22l36.542 36.547a2.977 2.977 0 0 1 0 4.215 2.973 2.973 0 0 1-2.109.874zM130.49 754.012a2.972 2.972 0 0 1-2.11-.874l-36.543-36.545a2.979 2.979 0 0 1 0-4.215 2.987 2.987 0 0 1 4.22 0l36.542 36.545a2.977 2.977 0 0 1 0 4.215 2.973 2.973 0 0 1-2.109.874zM1027.51 620.032c30.724 16.66 51.587 49.194 51.587 86.601 0 54.371-44.076 98.447-98.447 98.447-41.946 0-77.766-26.234-91.946-63.189l138.806-121.859z"></path><circle cx="875.28" cy="586.611" r="155.853" fill="#b0e1ff"></circle><path fill="#cef" d="M875.279 894.598a3.563 3.563 0 0 1-3.564-3.561V586.61a3.563 3.563 0 1 1 7.128 0v304.427a3.563 3.563 0 0 1-3.564 3.561z"></path><path fill="#cef" d="M875.279 670.887a3.551 3.551 0 0 1-2.52-1.044l-43.646-43.645a3.565 3.565 0 0 1 0-5.04 3.566 3.566 0 0 1 5.04 0l43.645 43.651a3.556 3.556 0 0 1 0 5.034 3.55 3.55 0 0 1-2.519 1.044zM875.279 711.414a3.554 3.554 0 0 1-2.52-1.043l-43.646-43.648a3.558 3.558 0 0 1 0-5.034 3.569 3.569 0 0 1 5.04 0l43.645 43.648a3.556 3.556 0 0 1 0 5.034 3.554 3.554 0 0 1-2.519 1.043zM980.013 894.543c-1.739-.301-2.927-1.945-2.927-3.709V731.331c0-1.93 1.446-3.659 3.373-3.76a3.562 3.562 0 0 1 3.755 3.556v159.909a3.567 3.567 0 0 1-4.201 3.507z"></path><path fill="#cef" d="M980.65 754.465a3.554 3.554 0 0 1-2.52-1.044 3.558 3.558 0 0 1 0-5.034l31.469-31.469a3.563 3.563 0 0 1 5.04 0 3.556 3.556 0 0 1 0 5.034l-31.469 31.469a3.558 3.558 0 0 1-2.52 1.044zM980.65 783.69a3.554 3.554 0 0 1-2.52-1.044 3.558 3.558 0 0 1 0-5.034l31.469-31.469a3.563 3.563 0 0 1 5.04 0 3.556 3.556 0 0 1 0 5.034l-31.469 31.469a3.558 3.558 0 0 1-2.52 1.044z"></path><path fill="#f2f2f2" d="M1066.523 1008.631H37.333c-7.412 0-13.477-6.065-13.477-13.477v-91.342c0-7.412 6.065-13.477 13.477-13.477h1029.19c7.412 0 13.477 6.065 13.477 13.477v91.342c0 7.412-6.065 13.477-13.477 13.477z"></path><ellipse cx="573.762" cy="941.493" fill="#f2f2f2" rx="326.904" ry="13.858"></ellipse><path fill="#b08b60" d="M537.25 423.988c-36.977-5.651-93.996-5.447-96.528 1.491-2.532 6.937 20.362 191.245 20.362 191.245l20.079 1.292S505 485.298 505.643 475.3c15.631 5.566 50.874 19.652 50.874 19.652l-19.267-70.964z"></path><path fill="#0b4870" d="M614.566 439.933c-5.311-2.692-77.316-15.944-77.316-15.944l-5.273 81.92s101.277 33.155 121.713 32.12c20.436-1.035 67.806 4.511 67.806 4.511l55.11-106.345-162.04 3.738z"></path><path fill="#b08b60" d="M720.707 301.561c36.328 6.269 168.787 70.318 203.161 136.973-12.419 12.733-28.111 16.234-28.111 16.234s-1.992-29.127-8.244-32.107c-1.944 10.186-2.621 15.935-2.621 15.935l-5.09 3.251s-3.349-28.849-7.416-31.388c-4.066-2.539-102.674-65.816-140.701-71.517-38.026-5.701-10.978-37.381-10.978-37.381zM519.993 278.484c-50.84-11.678-184.351-13.299-203.965-16.613-20.57-4.401-45.798-1.629-45.798-1.629s-2.752 13.092-.928 16.628c1.823 3.536 8.603 14.306 17.367 16.237 14.463-5.255 30.911-7.548 30.911-7.548l-8.872 10.368 1.242 7.259 16.503-17.398s103.551 6.172 165.189 23.138c55.862 1.335 28.351-30.442 28.351-30.442z"></path><path fill="#ffbe55" d="M629.373 290.703c66.731-.731 107.886 6.944 107.886 6.944l-3.038 47.198-48.189 1.207s35.097 68.322 26.752 108.716c-37.781 29.164-76.75 33.836-96.462 4.562-19.713-29.274-70.822-116.579-70.822-116.579l-64.757-31.455 17.779-41.94 83.172 13.1 47.679 8.247z"></path><path fill="#0a3249" d="M646.639 215.562c6.548.696 15.091 4.543 16.593 15.353s-10.148 59.507-25.441 62.369c-15.293 2.862-19.168 1.581-19.168 1.581l28.016-79.303z"></path><path fill="#b08b60" d="M572.46 219.932c-6.36 16.391-9.66 53.477-8.426 69.53.304 3.957 3.403 7.124 7.35 7.543 24.312 2.583 47.064 4.532 60.986-12.344 15.058-18.254 10.251-43.126 6.545-51.908-3.707-8.782-29.374-41.405-66.455-12.821z"></path><path fill="#0a3249" d="M630.086 245.473c.447 9.64-1.784 27.712-1.784 27.712l6.381.411s9.33-12.215 10.599-15.337c1.269-3.122 2.227-18.012-1.685-23.603s-13.511 10.817-13.511 10.817z"></path><path fill="#0a3249" d="M630.685 246.311c-8.613-.759-62.129-16.512-63.194-28.625s12.158-30.423 28.47-32.931c-2.374 2.858-4.132 4.661-4.87 7.625 9.004-3.8 14.148-2.922 14.148-2.922s-5.372 2.665-5.223 4.591c2.841 2.646 45.475 4.843 48.698 20.106s6.511 45.565-7.968 51.213c-7.368-15.521-10.061-19.057-10.061-19.057z"></path><path fill="#b08b60" d="M640.461 265.771c2.828-3.665 13.084-5.38 12.706-1.192-.378 4.188-6.77 21.379-19.072 21.236-12.302-.145 6.366-20.044 6.366-20.044z"></path><ellipse cx="613.356" cy="376.677" fill="#ffbe55" rx="19.975" ry="36.55" transform="rotate(-31.486 613.342 376.666)"></ellipse><path fill="#0e538c" d="M461.084 616.724s-54.55-16.892-59.206-17.781c-4.656-.889 8.929 16.894 11.138 19.187s73.609 27.724 73.609 27.724l-5.463-27.837-20.078-1.293z"></path><path fill="#b08b60" d="M797.298 449.028c-1.793-9.506-11.344-15.318-20.693-12.833-20.519 5.455-41.09 26.823-44.943 39.569-4.646 15.371-36.217 189.369-36.217 189.369l21.467 1.382c.001 0 90.499-163.888 80.386-217.487z"></path><path fill="#0e538c" d="M706.95 660.035c14.954-2.768 52.21-4.357 55.67-6.555 3.46-2.197 34.231-6.509 30.78 1.981-3.451 8.49-38.636 21.23-56.905 26.831-18.269 5.6-47.408 7.113-47.408 7.113l6.734-30.087 11.129.717z"></path><path fill="#ffbe55" d="M353.383 560.802c6.777 7.626 13.498 15.197 20.358 22.608 1.736 1.834 3.419 3.711 5.197 5.502 1.741 1.822 3.439 3.681 5.21 5.47a682.163 682.163 0 0 0 10.658 10.658 442.576 442.576 0 0 0 10.892 10.306c1.838 1.668 3.683 3.345 5.553 4.931.934.797 1.854 1.624 2.787 2.378a78.4 78.4 0 0 0 2.768 2.241c.458.361.924.73 1.314.992.365.264.99.707.826.573l-.006.023c-.027.002.049.022.107.037l.173.048.69.197 1.369.414 7.076 2.158 14.632 4.389 58.695 17.396 29.326 8.797 29.301 8.88 117.035 36.075 29.233 8.991 6.993 2.105.806.241c.237.065.627.208.659.167.254-.007.259.066.969.078l1.664.076 1.82.021c4.893.049 9.973-.115 15.023-.211l60.943-1.593.034-.001a3.496 3.496 0 0 1 .811 6.913c-10.14 2.132-20.307 3.611-30.494 4.891-5.094.643-10.196 1.172-15.302 1.709-5.108.5-10.227.912-15.359 1.315-5.146.383-10.267.638-15.581.787l-2.007.042-2.162-.026c-.569.022-1.829-.096-2.845-.225-.612-.058-.821-.167-1.202-.253l-1.037-.275-2.074-.556-1.946-.54-3.697-1.046-29.478-8.44c-39.264-11.26-78.43-22.805-117.581-34.416l-29.327-8.826-29.293-8.944-58.487-18.263-14.631-4.632-3.666-1.174-1.833-.587-.916-.293-1.116-.376-2.264-.79-1.127-.405-.281-.103c-.094-.035-.173-.055-.33-.15l-.822-.477c-1.279-.76-1.647-1.125-2.314-1.609-.649-.478-1.171-.918-1.704-1.361-4.267-3.528-8-7.127-11.732-10.832a213.667 213.667 0 0 1-5.441-5.632 215.223 215.223 0 0 1-5.272-5.759c-3.472-3.871-6.79-7.866-10.038-11.909-1.642-2.006-3.206-4.075-4.809-6.108-1.585-2.048-3.071-4.176-4.606-6.258-6.067-8.389-11.699-17.085-16.72-26.12a2.814 2.814 0 0 1 4.563-3.238l.015.019z"></path><circle cx="434.168" cy="667.771" r="17.3" fill="#ffbe55"></circle><circle cx="434.168" cy="667.771" r="7.942" fill="#ffbe55"></circle><circle cx="679.973" cy="741.988" r="17.3" fill="#ffbe55"></circle><circle cx="679.973" cy="741.988" r="7.942" fill="#ffbe55"></circle></svg>