<?xml version="1.0" encoding="utf-8"?>
<svg viewBox="0 0 1200 1200" xmlns="http://www.w3.org/2000/svg">
  <defs>
    <linearGradient gradientUnits="userSpaceOnUse" x1="599.999" y1="108.194" x2="599.999" y2="1091.807" id="gradient-0">
      <stop offset="0" style="stop-color: rgba(255, 218, 53, 1)"/>
      <stop offset="1" style="stop-color: rgba(206, 168, 0, 1)"/>
    </linearGradient>
    <linearGradient gradientUnits="userSpaceOnUse" x1="604.702" y1="706.699" x2="604.702" y2="847.699" id="gradient-4">
      <stop offset="0" style="stop-color: rgba(207, 177, 45, 1)"/>
      <stop offset="1" style="stop-color: rgba(123, 106, 27, 1)"/>
    </linearGradient>
    <linearGradient gradientUnits="userSpaceOnUse" x1="604.702" y1="706.699" x2="604.702" y2="847.699" id="gradient-2">
      <stop offset="0" style="stop-color: #bada55"/>
      <stop offset="1" style="stop-color: #758d29"/>
    </linearGradient>
    <linearGradient gradientUnits="userSpaceOnUse" x1="507.885" y1="357.699" x2="507.885" y2="488.699" id="gradient-5">
      <stop offset="0" style="stop-color: rgba(207, 177, 45, 1)"/>
      <stop offset="1" style="stop-color: rgba(123, 106, 27, 1)"/>
    </linearGradient>
    <linearGradient id="gradient-3" x1="3.69867" y1="4.89825" x2="22.5688" y2="37.2522" gradientUnits="userSpaceOnUse" gradientTransform="matrix(1, 0, 0, 1, 316.971389, 545.075865)">
      <stop offset="1" stop-color="#FFBC5E"/>
    </linearGradient>
  </defs>
  <g>
    <path d="M896.804,399.767c3.944,20.695,24.674,13.682,22.3-2.612c-0.136-2.397-0.516-9.656-0.627-12.14 c-3.922-81.469-77.017-276.821-234.621-276.821c-3.988,0-63.708,0.332-132.11,0.706c-91.713,0.484-199.051,1.08-210.886,1.301 c-2.161,0.439-214.237,45.767-232.219,261.46c-13.86,163.64-7.537,329.419-4.847,400.223c0.593,15.712,1.035,26.906,1.035,32.592 c0,50.31,70.823,284.952,271.883,284.952c97.005,0,195.727,0.837,275.366,1.52c54.036,0.462,98.856,0.859,128.87,0.859 c18.84,0,31.865-0.155,37.636-0.528c34.73-2.336,278.671-79.354,278.671-324.088c0-46.564,0.929-85.59,1.698-118.204 c2.138-90.193,3.107-131.336-19.017-154.012c-15.624-15.976-40.326-18.178-64.721-18.178c-2.608,0-4.947-0.119-7.413-0.183 c-21.075-0.701-19.663,23.742,1.313,22.565c2.062,0.043,3.961,0.183,6.1,0.183c26.597,0,40.678,3.306,48.567,11.393 c15.494,15.844,14.479,59.124,12.605,137.704c-0.769,32.767-1.697,71.949-1.697,118.732c0,245.176-255.026,301.391-257.581,301.567 c-14.147,0.948-80.63,0.375-164.833-0.375c-79.704-0.683-178.493-1.52-275.564-1.52c-195.064,0-249.317-235.636-249.317-262.386 c0-5.84-0.442-17.32-1.058-33.453c-2.668-70.383-8.947-235.192,4.78-397.468c16.595-199.032,212.233-240.836,211.969-241.012 c9.609,0,117.012-0.594,208.771-1.078c68.356-0.375,128.01-0.706,131.998-0.706c140.351,0,208.574,182.681,212.099,255.314 C896.165,390.689,896.455,395.245,896.804,399.767z" style="fill: url(#gradient-0);"/>
    <path d="M433.391,847.699h342.534c39.598,0,71.816-30.924,71.816-70.499c0-39.577-32.218-70.501-71.816-70.501 H433.391c-39.554,0-71.727,30.924-71.727,70.501C361.663,816.775,393.837,847.699,433.391,847.699z M433.391,727.699h342.534 c27.147,0,49.25,22.372,49.25,49.501c0,27.125-22.104,49.499-49.25,49.499H433.391c-27.102,0-49.163-22.374-49.163-49.499 C384.228,750.072,406.288,727.699,433.391,727.699z" style="stroke: url(#gradient-2); fill: url(#gradient-4);"/>
    <path d="M604.701,488.699c35.48,0,64.346-30.01,64.346-65.512c0-35.477-28.867-65.488-64.346-65.488H411.091 c-35.5,0-64.368,30.011-64.368,65.488c0,35.502,28.868,65.512,64.368,65.512H604.701z M369.288,423.687 c0-23.028,18.754-41.988,41.802-41.988h193.611c23.028,0,41.782,18.96,41.782,41.988c0,23.05-18.754,42.012-41.782,42.012H411.091 C388.042,465.699,369.288,446.737,369.288,423.687z" style="fill: url(#gradient-5);"/>
  </g>
  <path opacity="0.15" fill-rule="evenodd" clip-rule="evenodd" d="M 119.351 850.662 C 71.613 487.434 157.142 267.291 222.21 194.13 C 269.481 140.98 383.721 73.25 760.856 138.524 C 999.383 334.388 863.363 459.641 1077.036 509.669 C 1167.784 1007.245 888.931 1121.07 584.863 1079.478 C 406.426 1055.071 262.508 1138.842 119.351 850.662 Z" fill="url(#gradient-3)" style="pointer-events: none;"/>
</svg>